<?xml version="1.0" standalone="no"?>
<!DOCTYPE svg PUBLIC "-//W3C//DTD SVG 20010904//EN"
 "http://www.w3.org/TR/2001/REC-SVG-20010904/DTD/svg10.dtd">
<svg version="1.0" xmlns="http://www.w3.org/2000/svg"
 width="2000.000000pt" height="2000.000000pt" viewBox="0 0 2000.000000 2000.000000"
 preserveAspectRatio="xMidYMid meet">

<g transform="translate(0.000000,1500.000000) scale(0.100000,-0.100000)"
fill="#000000" stroke="none">
<path d="M5160 11840 l0 -300 233 0 233 0 288 -880 c158 -483 285 -883 282
-888 -2 -4 35 -122 84 -262 49 -140 147 -427 217 -637 l128 -383 402 0 c318 0
401 3 398 13 -21 62 -195 679 -195 691 0 14 63 16 603 16 331 0 1813 5 3292
11 1480 6 2736 9 2791 7 l101 -3 -128 -330 c-71 -181 -136 -347 -144 -367
l-15 -38 318 0 317 0 236 638 236 637 -3995 3 c-2198 1 -4000 6 -4004 10 -5 5
-181 535 -391 1177 -358 1094 -384 1170 -407 1176 -14 4 -217 7 -452 8 l-428
1 0 -300z"/>
<path d="M9999 10784 c-404 -333 -745 -616 -759 -630 l-25 -24 1525 0 c1281 0
1522 2 1510 14 -27 24 -1510 1246 -1514 1246 -1 0 -333 -273 -737 -606z"/>
<path d="M10535 8607 c-1369 -5 -2492 -10 -2494 -12 -2 -2 3 -27 10 -54 l13
-51 2506 0 2505 0 19 53 c10 28 21 58 23 65 4 9 -8 12 -43 10 -27 -1 -1169 -6
-2539 -11z"/>
<path d="M4540 8160 c-240 -38 -438 -222 -500 -466 -27 -106 -27 -272 0 -380
37 -145 113 -265 221 -346 118 -88 220 -122 374 -121 197 1 349 69 471 212 34
39 35 44 21 58 -14 15 -23 10 -95 -58 -96 -90 -181 -135 -295 -156 -310 -55
-587 135 -651 449 -91 443 219 816 629 758 163 -23 291 -116 380 -275 20 -36
41 -65 46 -65 5 0 9 80 9 185 l0 185 -25 0 -25 0 -1 -117 0 -118 -22 30 c-43
59 -136 144 -184 168 -102 52 -242 74 -353 57z"/>
<path d="M6143 8156 c-63 -29 -54 -106 16 -127 34 -10 44 -9 78 7 33 16 38 24
41 56 3 30 -1 40 -20 52 -36 23 -79 28 -115 12z"/>
<path d="M12420 8160 c-129 -20 -239 -78 -336 -175 -84 -85 -143 -194 -170
-311 -25 -115 -16 -313 19 -412 71 -202 224 -348 418 -398 77 -21 232 -23 309
-5 119 28 235 99 325 200 37 41 38 44 21 57 -17 12 -26 6 -96 -59 -94 -88
-179 -133 -293 -154 -309 -55 -587 136 -653 449 -23 106 -15 269 19 371 88
271 334 426 612 387 163 -23 291 -116 380 -275 20 -36 41 -65 46 -65 5 0 9 80
9 185 l0 185 -25 0 -25 0 -1 -117 0 -118 -22 29 c-110 147 -234 217 -407 229
-41 3 -100 2 -130 -3z"/>
<path d="M5330 8131 c0 -37 11 -41 121 -41 l109 0 0 -585 0 -585 -115 0 -115
0 0 -25 0 -25 255 0 255 0 0 25 0 25 -115 0 -115 0 0 610 0 610 -140 0 c-78 0
-140 -4 -140 -9z"/>
<path d="M7600 8115 l0 -25 110 0 110 0 0 -585 0 -585 -110 0 -110 0 0 -25 0
-25 250 0 250 0 0 25 0 25 -110 0 -110 0 0 176 c0 164 1 176 18 169 84 -33
174 -56 254 -66 l95 -12 12 -49 c27 -117 107 -233 186 -269 60 -28 149 -25
212 6 69 35 88 57 73 85 l-12 22 -26 -25 c-69 -64 -176 -78 -248 -31 -62 40
-123 141 -148 246 -6 25 -3 27 48 42 115 34 205 122 226 221 41 200 -131 347
-359 306 -80 -14 -203 -70 -274 -125 -26 -20 -49 -36 -52 -36 -3 0 -5 126 -5
280 l0 280 -140 0 -140 0 0 -25z m815 -445 c29 -14 56 -38 73 -63 23 -35 27
-51 27 -118 0 -70 -3 -81 -30 -120 -42 -59 -106 -96 -198 -115 -94 -19 -199
-8 -323 35 l-79 28 -3 104 -2 104 52 39 c66 48 199 113 258 126 72 15 172 6
225 -20z"/>
<path d="M9570 7860 l0 -120 -115 0 -115 0 0 -25 0 -25 115 0 115 0 0 -305 c0
-178 4 -325 11 -354 15 -72 59 -128 125 -158 49 -22 65 -24 142 -21 58 3 105
12 142 26 76 30 83 36 76 60 -6 19 -8 19 -79 -9 -56 -22 -89 -28 -148 -29
-103 0 -154 26 -189 95 -25 50 -25 51 -28 373 l-3 322 175 0 176 0 0 25 0 25
-175 0 -175 0 0 120 0 120 -25 0 -25 0 0 -120z"/>
<path d="M15470 7860 l0 -120 -110 0 -110 0 0 -25 0 -25 109 0 109 0 4 -322
c5 -362 8 -382 75 -450 55 -56 104 -71 210 -65 65 3 105 12 153 32 36 15 66
28 68 30 2 2 -1 12 -7 24 -11 20 -12 20 -69 -7 -50 -24 -69 -27 -158 -27 -95
0 -103 2 -137 28 -72 55 -72 53 -75 425 l-3 332 170 0 171 0 0 25 0 25 -170 0
-170 0 0 120 0 120 -30 0 -30 0 0 -120z"/>
<path d="M6935 7746 c-65 -20 -105 -45 -162 -99 -113 -106 -167 -269 -143
-423 36 -229 209 -374 445 -374 131 0 223 36 340 134 28 23 29 26 13 42 -16
16 -19 15 -58 -18 -22 -20 -69 -51 -103 -69 -61 -33 -65 -34 -182 -34 -109 0
-125 2 -177 27 -80 37 -152 107 -190 186 -28 55 -33 78 -36 157 -7 148 31 249
129 340 80 75 123 90 259 90 105 0 120 -2 171 -28 68 -33 129 -96 166 -172 15
-30 31 -55 35 -55 4 0 8 65 8 145 l0 145 -25 0 c-25 0 -25 -1 -25 -81 l0 -81
-32 43 c-42 54 -116 105 -181 124 -61 18 -196 19 -252 1z"/>
<path d="M10518 7741 c-80 -26 -136 -61 -190 -119 -80 -85 -118 -188 -118
-317 0 -137 46 -250 137 -336 254 -240 683 -110 754 229 16 79 6 213 -21 285
-41 108 -138 206 -247 248 -82 31 -235 36 -315 10z m314 -63 c252 -117 306
-488 99 -681 -61 -57 -112 -81 -203 -97 -133 -23 -267 20 -357 115 -146 154
-148 417 -4 576 78 86 167 120 308 116 83 -2 110 -7 157 -29z"/>
<path d="M13570 7753 c-50 -9 -144 -35 -196 -54 -45 -17 -54 -25 -54 -45 0
-13 3 -24 6 -24 3 0 54 17 112 37 102 36 113 38 237 38 124 0 132 -1 177 -28
31 -18 57 -44 75 -75 25 -42 28 -58 32 -159 2 -62 -1 -113 -5 -113 -5 0 -41 9
-79 20 -231 67 -432 40 -544 -71 -41 -41 -71 -112 -71 -169 0 -93 63 -185 156
-230 68 -32 200 -40 275 -15 64 21 168 72 222 109 21 14 42 26 46 26 5 0 12
-17 16 -37 4 -22 20 -50 41 -71 33 -33 37 -34 94 -30 68 5 82 14 74 45 -5 18
-10 21 -24 13 -24 -13 -76 -13 -100 0 -34 18 -40 65 -40 310 0 316 -15 388
-94 457 -57 51 -132 73 -239 72 -51 -1 -103 -4 -117 -6z m165 -423 c39 -6 105
-20 148 -31 l77 -21 0 -114 0 -113 -42 -29 c-207 -141 -426 -163 -541 -54 -43
41 -59 79 -59 143 0 167 167 254 417 219z"/>
<path d="M14934 7746 c-80 -25 -166 -81 -253 -163 -49 -45 -92 -83 -95 -83 -3
0 -6 54 -6 120 l0 120 -140 0 -140 0 0 -25 0 -25 115 0 115 0 0 -385 0 -385
-115 0 -115 0 0 -25 0 -25 255 0 255 0 0 25 0 25 -115 0 -115 0 0 262 0 263
68 63 c137 130 269 202 368 202 l34 0 0 -135 0 -135 30 0 30 0 0 160 0 160
-67 -1 c-38 0 -86 -6 -109 -13z"/>
<path d="M5960 7715 l0 -25 115 0 115 0 0 -385 0 -385 -115 0 -115 0 0 -25 0
-25 255 0 255 0 0 25 0 25 -115 0 -115 0 0 410 0 410 -140 0 -140 0 0 -25z"/>
<path d="M7354 6428 c18 -51 61 -175 96 -275 l63 -183 145 0 145 0 835 -270
c460 -149 837 -271 838 -273 2 -1 -275 -89 -614 -194 -431 -134 -638 -194
-687 -199 -113 -11 -252 -51 -360 -103 -656 -321 -796 -1189 -273 -1697 166
-162 353 -255 583 -291 314 -48 651 60 881 283 135 131 243 316 291 499 23 88
26 119 26 260 0 141 -3 172 -26 260 -30 114 -105 273 -171 363 -25 34 -42 63
-38 65 21 13 1364 427 1382 427 20 0 1348 -425 1358 -434 1 -2 -20 -30 -48
-62 -271 -310 -328 -781 -140 -1154 150 -297 433 -508 759 -565 556 -98 1096
268 1212 820 25 116 27 310 4 419 -67 321 -265 585 -550 732 -52 27 -95 54
-95 61 0 7 -55 30 -122 51 -737 233 -1378 447 -1362 454 51 22 1876 587 1915
593 54 8 93 37 85 63 -4 10 26 104 69 221 41 111 75 206 75 212 0 5 -1178 9
-3155 9 l-3154 0 33 -92z m3945 -432 c-8 -8 -808 -256 -825 -256 -13 0 -538
167 -734 233 -28 10 59 13 455 17 811 9 1109 10 1104 6z m-2914 -1570 c165
-44 287 -166 330 -333 77 -293 -167 -583 -470 -560 -387 29 -564 499 -291 773
112 111 285 159 431 120z m4276 -56 c88 -17 174 -63 240 -129 241 -242 145
-641 -182 -751 -53 -18 -81 -21 -160 -18 -87 3 -104 7 -171 41 -100 49 -171
120 -217 216 -31 66 -36 87 -39 168 -6 119 19 205 83 292 67 91 154 149 263
175 71 18 114 19 183 6z"/>
</g>
</svg>
